:version 1.10
:name ASF
:units
  mass 1
  length 1
  angle deg
:documentation
  ASF file generated by Kaydara
:root
  axis xyz
  order  tx ty tz rx ry rz
  position 0 0 0
  orientation 0 0 0
:bonedata
  begin
    id 1
    name RightUpLegDummy
    direction -1 2.30186e-007 8.31532e-007
    length 4.46685
    axis 0 0 0 xyz
  end
  begin
    id 2
    name RightUpLeg
    direction -2.30187e-007 -1 1.24343e-010
    length 16.4045
    axis -3.49089 -0.000906625 0.000286804 xyz
    dof rx ry rz
  end
  begin
    id 3
    name RightLeg
    direction -2.30181e-007 -1 -4.17157e-009
    length 17.5097
    axis 3.68512 0.0193738 -0.131023 xyz
    dof rx ry rz
  end
  begin
    id 4
    name RightFoot
    direction 8.31421e-007 -4.51202e-011 1
    length 6.49508
    axis 4.81691e-005 -0.120479 -0.188788 xyz
    dof rx ry rz
  end
  begin
    id 5
    name RightToes
    direction 0.00124746 -0.014064 0.9999
    length 3.85082
    axis 0.000481921 0.542163 -0.142578 xyz
    dof rx ry rz
  end
  begin
    id 6
    name SpineDummy
    direction 0.0717043 0.9409 -0.331007
    length 10.0032
    axis 0 0 0 xyz
  end
  begin
    id 7
    name Spine
    direction 2.30186e-007 1 4.58806e-011
    length 9.84055
    axis -0.001389 0.000121418 2.40972e-006 xyz
    dof rx ry rz
  end
  begin
    id 8
    name Spine1
    direction 0 0 0
    length 0
    axis -0.001389 0.000121451 1.30017e-006 xyz
    dof rx ry rz
  end
  begin
    id 9
    name HEadDummy
    direction -0.00347485 0.950688 -0.310128
    length 8.00997
    axis -0.001389 0.000121451 1.30017e-006 xyz
  end
  begin
    id 10
    name HEad
    direction -0.0222688 0.980941 0.193023
    length 5.12695
    axis -0.001389 0.000121451 1.30017e-006 xyz
    dof rx ry rz
  end
  begin
    id 11
    name LeftShoulder1Dummy
    direction 0.988871 0.146793 -0.0242004
    length 3.5792
    axis -0.001389 0.000121451 1.30017e-006 xyz
  end
  begin
    id 12
    name LeftShoulder1
    direction 0.993832 0.108932 0.020779
    length 4.16823
    axis -0.001389 0.000121451 1.30017e-006 xyz
    dof rx ry rz
  end
  begin
    id 13
    name LeftArm
    direction 1 3.44807e-006 -8.31404e-007
    length 9.91437
    axis -23.1894 0.134784 0.967509 xyz
    dof rx ry rz
  end
  begin
    id 14
    name LeftForeArm
    direction 1 3.44842e-006 -8.31581e-007
    length 9.08575
    axis -9.91835 -0.06569 -0.177793 xyz
    dof rx ry rz
  end
  begin
    id 15
    name LeftHand
    direction 0.992938 -0.0411636 0.11126
    length 5.32135
    axis -0.00960232 -0.00340091 0.185173 xyz
    dof rx ry rz
  end
  begin
    id 16
    name RightShoulderDummy
    direction -0.988871 0.146793 -0.0241962
    length 3.5792
    axis -0.001389 0.000121451 1.30017e-006 xyz
  end
  begin
    id 17
    name RightShoulder
    direction -0.993832 0.108933 0.0207785
    length 4.16823
    axis 0.215806 0.000203643 -0.0068026 xyz
    dof rx ry rz
  end
  begin
    id 18
    name RightArm
    direction -1 3.90912e-006 8.31284e-007
    length 9.91437
    axis -23.2009 -0.134239 -0.964101 xyz
    dof rx ry rz
  end
  begin
    id 19
    name RightForeArm
    direction -1 3.90882e-006 8.31502e-007
    length 9.08575
    axis -9.92322 0.0658061 0.178867 xyz
    dof rx ry rz
  end
  begin
    id 20
    name RightHand
    direction -0.992843 -0.0414603 0.112003
    length 5.28593
    axis -0.00960638 0.00330671 -0.185228 xyz
    dof rx ry rz
  end
  begin
    id 21
    name LeftUpLegDummy
    direction 1 -2.30186e-007 -8.31532e-007
    length 4.46685
    axis 0 0 0 xyz
  end
  begin
    id 22
    name LeftUpLeg
    direction -2.30187e-007 -1 6.00931e-010
    length 16.4045
    axis -3.48766 0.00143442 -0.000524262 xyz
    dof rx ry rz
  end
  begin
    id 23
    name LeftLeg
    direction -2.30187e-007 -1 1.6669e-009
    length 17.5097
    axis 3.68178 -0.00654042 -0.000285133 xyz
    dof rx ry rz
  end
  begin
    id 24
    name LeftFoot
    direction 8.31532e-007 -4.54478e-011 1
    length 6.49508
    axis 1.87233e-006 4.66016e-005 -8.6538e-006 xyz
    dof rx ry rz
  end
  begin
    id 25
    name LeftToes
    direction 0.00818058 -0.00485161 0.999955
    length 3.85048
    axis 1.06247e-005 4.65869e-005 -8.65513e-006 xyz
    dof rx ry rz
  end
:hierarchy
  begin
    root RightUpLegDummy SpineDummy LeftUpLegDummy
    RightUpLegDummy RightUpLeg
    RightUpLeg RightLeg
    RightLeg RightFoot
    RightFoot RightToes
    SpineDummy Spine
    Spine Spine1
    Spine1 HEadDummy LeftShoulder1Dummy RightShoulderDummy
    HEadDummy HEad
    LeftShoulder1Dummy LeftShoulder1
    LeftShoulder1 LeftArm
    LeftArm LeftForeArm
    LeftForeArm LeftHand
    RightShoulderDummy RightShoulder
    RightShoulder RightArm
    RightArm RightForeArm
    RightForeArm RightHand
    LeftUpLegDummy LeftUpLeg
    LeftUpLeg LeftLeg
    LeftLeg LeftFoot
    LeftFoot LeftToes
  end

:SAMPLES-PER-SECOND 30
:FULLY-SPECIFIED
:DEGREES
71
root  28.166 28.8702 9.17608 -159.83 -10.4921 175.746
RightUpLeg  -61.2699 16.9719 -11.9391
RightLeg  65.6156 6.08274 11.124
RightFoot  -13.4315 -0.408476 -3.09053
RightToes  -45.5362 -0.26415 -0.344212
Spine  19.7719 3.84536 7.78188
Spine1  36.0926 8.28678 8.53406
HEad  6.75829 9.69377 -16.1212
LeftShoulder1  0 -2.42657e-020 -4.95415e-022
LeftArm  9.66398 -20.5686 -98.9424
LeftForeArm  32.7201 -39.6073 -8.38836
LeftHand  0.203621 -8.61001 -3.07683
RightShoulder  0 2.42657e-020 1.07489e-018
RightArm  -48.2254 31.6592 57.1463
RightForeArm  68.0569 17.2192 3.06378
RightHand  -3.71142 20.6085 -19.8449
LeftUpLeg  -49.199 6.71395 -14.1265
LeftLeg  62.9307 -0.172593 -0.30185
LeftFoot  -23.1611 0.0713249 0.348057
LeftToes  -10.5679 1.28829e-006 1.15665e-007
72
root  27.8444 28.2386 9.14641 -159.97 -11.2549 175.443
RightUpLeg  -62.7072 14.8938 -11.9876
RightLeg  69.529 5.82059 12.5935
RightFoot  -14.8428 -0.551108 -3.85167
RightToes  -47.9127 -0.284574 -0.355321
Spine  20.1029 3.60464 9.00214
Spine1  36.4266 7.77718 10.2791
HEad  6.65517 8.84327 -16.4836
LeftShoulder1  0 -2.42657e-020 -4.95415e-022
LeftArm  11.7544 -21.201 -100.706
LeftForeArm  33.1594 -39.7092 -8.41883
LeftHand  0.1581 -8.85278 -2.41401
RightShoulder  0 2.42657e-020 1.07489e-018
RightArm  -74.2334 35.2375 48.3642
RightForeArm  47.5347 7.91428 1.38568
RightHand  -1.59458 19.5577 -8.86537
LeftUpLeg  -51.1226 6.76831 -15.1375
LeftLeg  67.4709 -0.4801 -0.989276
LeftFoot  -24.254 0.124918 0.581343
LeftToes  -10.8596 1.28829e-006 1.15665e-007
73
root  27.569 28.0768 9.10198 -159.925 -13.7142 175.38
RightUpLeg  -62.2106 11.8601 -11.3194
RightLeg  70.6897 5.77212 13.1728
RightFoot  -15.6555 -0.645214 -4.31334
RightToes  -48.3647 -0.28851 -0.357337
Spine  19.5755 2.48148 9.94834
Spine1  35.4342 5.30696 11.9066
HEad  5.66644 8.94893 -16.3403
LeftShoulder1  0 -2.42657e-020 -4.95415e-022
LeftArm  12.041 -20.5441 -101.494
LeftForeArm  34.0337 -40.7175 -8.72799
LeftHand  -0.0111125 -8.156 -0.214261
RightShoulder  0 2.42657e-020 1.07489e-018
RightArm  -80.0989 32.6939 46.6872
RightForeArm  29.6116 12.8653 2.30448
RightHand  -0.407487 20.0833 -1.93149
LeftUpLeg  -52.4348 5.98818 -15.6073
LeftLeg  70.2753 -0.730754 -1.70367
LeftFoot  -22.729 0.150907 0.750795
LeftToes  -10.7137 1.28829e-006 1.15665e-007
74
root  27.3831 28.2689 9.01891 -159.632 -15.9392 175.88
RightUpLeg  -60.9637 10.3033 -10.509
RightLeg  69.4818 5.72294 12.3605
RightFoot  -15.79 -0.634058 -4.19259
RightToes  -48.2735 -0.289822 -0.358326
Spine  18.7236 1.41505 10.3314
Spine1  34.216 3.20077 12.373
HEad  4.17438 10.0563 -16.0533
LeftShoulder1  0 -2.42657e-020 -4.95415e-022
LeftArm  10.9675 -19.124 -101.441
LeftForeArm  32.3069 -42.5591 -9.32115
LeftHand  -0.138536 -7.51379 1.74118
RightShoulder  0 2.42657e-020 1.07489e-018
RightArm  -72.6578 28.9446 47.8727
RightForeArm  17.3415 21.2006 3.9171
RightHand  1.019 22.0694 5.59352
LeftUpLeg  -53.5211 7.09251 -15.636
LeftLeg  71.5455 -1.41559 -3.49228
LeftFoot  -19.8689 0.213301 1.21778
LeftToes  -13.8924 1.28829e-006 1.15665e-007
75
root  27.1899 28.7641 8.87376 -159.894 -17.405 176.75
RightUpLeg  -58.4362 9.48844 -9.40288
RightLeg  66.4449 6.08983 11.5231
RightFoot  -14.9293 -0.552563 -3.838
RightToes  -48.2883 -0.290065 -0.359366
Spine  17.9959 0.425714 9.86528
Spine1  33.204 1.26717 11.7932
HEad  2.91704 11.7449 -15.4932
LeftShoulder1  0 -2.42657e-020 -4.95415e-022
LeftArm  9.89225 -17.5136 -100.372
LeftForeArm  30.208 -44.5361 -9.99954
LeftHand  -0.230705 -6.37568 3.7746
RightShoulder  0 2.42657e-020 1.07489e-018
RightArm  -63.1778 24.1902 50.7066
RightForeArm  22.4155 31.0542 6.09261
RightHand  1.04109 23.1926 5.44175
LeftUpLeg  -53.1455 10.5221 -15.3433
LeftLeg  70.7545 -1.19933 -2.84934
LeftFoot  -19.0276 0.140556 0.838663
LeftToes  -19.7208 1.28829e-006 1.15665e-007
76
root  26.9408 29.3993 8.73514 -160.138 -18.8371 177.575
RightUpLeg  -55.2974 8.10913 -8.25264
RightLeg  62.3396 6.95914 11.1591
RightFoot  -13.7342 -0.477629 -3.58707
RightToes  -47.7098 -0.289677 -0.36031
Spine  17.0519 -0.708282 9.07869
Spine1  31.6297 -1.04332 11.0648
HEad  2.39675 13.5499 -15.0855
LeftShoulder1  0 -2.42657e-020 -4.95415e-022
LeftArm  9.44073 -15.4105 -98.8098
LeftForeArm  28.5489 -46.4321 -10.696
LeftHand  -0.296134 -5.88177 5.39591
RightShoulder  0 2.42657e-020 1.07489e-018
RightArm  -59.2577 20.0971 53.6758
RightForeArm  17.2896 38.4038 8.03809
RightHand  1.29123 23.8439 6.48185
LeftUpLeg  -52.5276 14.9999 -14.8991
LeftLeg  68.9789 0.26589 0.562857
LeftFoot  -19.2545 -0.0824972 -0.486351
LeftToes  -17.2205 1.28829e-006 1.15665e-007
77
root  26.6811 30.0565 8.57214 -160.263 -21.0245 178.463
RightUpLeg  -51.8297 6.13803 -6.94558
RightLeg  57.6485 7.84223 10.5556
RightFoot  -12.4876 -0.398813 -3.2666
RightToes  -47.9714 -0.289098 -0.361008
Spine  16.0483 -1.81594 8.41927
Spine1  30.0687 -3.17138 10.1777
HEad  1.52419 15.494 -15.0967
LeftShoulder1  0 -2.42657e-020 -4.95415e-022
LeftArm  9.76489 -13.164 -97.2975
LeftForeArm  26.8699 -48.3671 -11.4605
LeftHand  -0.355851 -5.61619 6.88378
RightShoulder  0 2.42657e-020 1.07489e-018
RightArm  -55.266 16.8588 55.4002
RightForeArm  7.62722 43.9166 9.77759
RightHand  1.9846 22.4006 10.3711
LeftUpLeg  -52.1966 19.2653 -13.838
LeftLeg  66.7414 2.41666 4.72925
LeftFoot  -18.8451 -0.344641 -2.07652
LeftToes  -10.8192 1.28829e-006 1.15665e-007
78
root  26.3656 30.6202 8.39561 -160.42 -23.3171 178.869
RightUpLeg  -48.4823 3.90329 -6.14241
RightLeg  53.5086 8.65211 10.0518
RightFoot  -11.3727 -0.331243 -2.94835
RightToes  -48.3941 -0.288767 -0.361313
Spine  15.1507 -2.65308 7.59777
Spine1  28.7944 -4.48452 8.3992
HEad  0.547652 17.6139 -14.9802
LeftShoulder1  0 -2.42657e-020 -4.95415e-022
LeftArm  10.1619 -10.8592 -96.1577
LeftForeArm  25.1405 -50.158 -12.2236
LeftHand  -0.354165 -5.1643 7.48115
RightShoulder  0 2.42657e-020 1.07489e-018
RightArm  -48.9928 15.0679 56.8336
RightForeArm  9.38073 47.1285 10.9599
RightHand  1.96474 22.2548 10.3378
LeftUpLeg  -52.0578 22.686 -12.5746
LeftLeg  64.1986 3.6847 6.47257
LeftFoot  -18.1766 -0.431928 -2.69967
LeftToes  -7.65824 1.28829e-006 1.15665e-007
79
root  26.0735 31.0644 8.19381 -160.971 -25.7054 179.702
RightUpLeg  -45.1363 1.36475 -4.77198
RightLeg  49.721 9.43324 9.60628
RightFoot  -10.4482 -0.280147 -2.68592
RightToes  -48.2299 -0.288965 -0.361077
Spine  14.3842 -2.9364 6.81921
Spine1  27.5865 -4.95745 7.38229
HEad  -1.13913 18.8416 -14.5841
LeftShoulder1  0 -2.42657e-020 -4.95415e-022
LeftArm  12.3333 -8.04455 -95.0036
LeftForeArm  24.9981 -54.1029 -14.1379
LeftHand  -0.403171 -4.50975 9.85726
RightShoulder  0 2.42657e-020 1.07489e-018
RightArm  -44.1541 12.0703 58.5566
RightForeArm  5.4155 52.4355 13.2699
RightHand  2.16311 21.8368 11.5525
LeftUpLeg  -52.5335 25.6457 -10.4441
LeftLeg  61.7034 3.77109 6.0024
LeftFoot  -17.0685 -0.364942 -2.43158
LeftToes  -7.99666 1.28829e-006 1.15665e-007
80
root  25.7722 31.3652 7.95122 -161.69 -28.1201 -179.459
RightUpLeg  -42.0103 -0.937063 -3.61849
RightLeg  46.5878 9.96238 9.10374
RightFoot  -10.0052 -0.252082 -2.50183
RightToes  -48.9227 -0.289088 -0.36015
Spine  13.8059 -2.7196 6.09097
Spine1  26.5699 -4.60609 6.76239
HEad  -3.58542 19.2115 -14.2666
LeftShoulder1  0 -2.42657e-020 -4.95415e-022
LeftArm  14.6472 -4.73081 -94.0054
LeftForeArm  27.0528 -59.2615 -17.3139
LeftHand  -0.380359 -3.13965 13.4713
RightShoulder  0 2.42657e-020 1.07489e-018
RightArm  -38.2447 8.62981 59.6799
RightForeArm  6.2816 60.2716 18.0318
RightHand  2.2143 21.6141 11.9355
LeftUpLeg  -53.7313 28.6381 -8.63362
LeftLeg  58.9894 4.00842 5.75619
LeftFoot  -15.0362 -0.28003 -2.12163
LeftToes  -6.23254 1.28829e-006 1.15665e-007
81
root  25.4331 31.4582 7.62086 -162.674 -31.0049 -178.827
RightUpLeg  -39.2703 -3.32024 -2.63692
RightLeg  45.2376 9.68829 8.45638
RightFoot  -10.6554 -0.264926 -2.46292
RightToes  -48.3346 -0.288247 -0.358385
Spine  13.4697 -2.40381 5.51033
Spine1  25.8793 -4.07032 6.16477
HEad  -5.5385 19.4959 -13.6016
LeftShoulder1  0 -2.42657e-020 -4.95415e-022
LeftArm  15.1251 -0.523258 -93.0592
LeftForeArm  30.164 -65.8543 -23.2882
LeftHand  -0.145328 -1.08801 14.9403
RightShoulder  0 2.42657e-020 1.07489e-018
RightArm  -30.0898 5.71486 59.9741
RightForeArm  17.3683 68.4633 26.6821
RightHand  1.5161 21.6093 8.30433
LeftUpLeg  -55.3572 31.4896 -7.63843
LeftLeg  55.5393 4.61554 5.84175
LeftFoot  -13.8791 -0.250628 -2.05895
LeftToes  -5.11022 1.28829e-006 1.15665e-007
82
root  25.0603 31.3786 7.16096 -164.346 -35.0787 -177.658
RightUpLeg  -36.1745 -6.39156 -1.2369
RightLeg  44.7277 9.15972 7.8631
RightFoot  -12.2552 -0.316916 -2.57395
RightToes  -47.9824 -0.28518 -0.355634
Spine  13.5311 -1.77688 5.24421
Spine1  25.9375 -2.77666 5.88262
HEad  -7.58197 18.2734 -11.8722
LeftShoulder1  0 -2.42657e-020 -4.95415e-022
LeftArm  13.4144 3.65431 -92.576
LeftForeArm  38.3037 -72.8947 -35.2352
LeftHand  -0.0605121 -0.495793 13.7381
RightShoulder  0 2.42657e-020 1.07489e-018
RightArm  -21.9227 2.6363 59.5337
RightForeArm  44.2998 76.437 47.4782
RightHand  -0.0758763 23.2526 0.00122971
LeftUpLeg  -57.6204 34.18 -7.3235
LeftLeg  51.1572 4.25241 4.61469
LeftFoot  -11.2255 -0.142731 -1.45229
LeftToes  -4.96562 1.28829e-006 1.15665e-007
83
root  24.6103 31.1899 6.61347 -166.314 -40.0275 -176.219
RightUpLeg  -32.8243 -8.33878 -0.0302147
RightLeg  44.3645 7.12353 6.05566
RightFoot  -14.5272 -0.33678 -2.26439
RightToes  -46.5883 -0.273134 -0.349234
Spine  13.4871 -1.09612 4.88225
Spine1  25.7507 -1.41648 5.71285
HEad  -9.48146 16.0145 -8.67814
LeftShoulder1  0 -2.42657e-020 -4.95415e-022
LeftArm  10.7416 6.6245 -92.1901
LeftForeArm  60.3881 -78.0077 -56.8794
LeftHand  -0.129897 -1.46168 9.833
RightShoulder  0 2.42657e-020 1.07489e-018
RightArm  -11.7109 1.0985 58.853
RightForeArm  93.7552 79.8167 83.0671
RightHand  -3.06041 23.6961 -14.1472
LeftUpLeg  -60.9148 36.9482 -9.39143
LeftLeg  45.4183 3.39679 3.01935
LeftFoot  -6.15795 -0.0337002 -0.626516
LeftToes  -8.02781 1.28829e-006 1.15665e-007
84
root  24.0349 30.9368 5.99111 -168.721 -45.9951 -173.894
RightUpLeg  -29.3284 -9.38748 1.67672
RightLeg  43.795 3.75328 3.12687
RightFoot  -16.9468 -0.247396 -1.28303
RightToes  -43.6862 -0.248579 -0.334984
Spine  13.0068 -0.559887 4.75921
Spine1  24.6335 -0.589551 6.48829
HEad  -10.1727 12.4879 -4.49104
LeftShoulder1  0 -2.42657e-020 -4.95415e-022
LeftArm  8.53927 7.50666 -92.0843
LeftForeArm  78.0752 -79.826 -82.9005
LeftHand  0.103147 1.39224 8.06381
RightShoulder  0 2.42657e-020 1.07489e-018
RightArm  -1.28916 1.48711 58.2201
RightForeArm  133.606 79.4365 106.914
RightHand  -5.48075 21.5647 -27.8546
LeftUpLeg  -65.4982 38.9432 -13.7212
LeftLeg  39.6143 2.34075 1.69022
LeftFoot  -5.51069 -0.0159136 -0.330667
LeftToes  -11.7612 1.28829e-006 1.15665e-007
